HIERARCHY
ROOT hips
{
	OFFSET 0.000000 104.274902 0.000000
	CHANNELS 6 Xposition Yposition Zposition Xrotation Yrotation Zrotation
	JOINT spine
	{
		OFFSET 0.000000 10.181549 0.131524
		CHANNELS 6 Xposition Yposition Zposition Xrotation Yrotation Zrotation
		JOINT chest
		{
			OFFSET 0.000000 9.893990 -1.470706
			CHANNELS 3 Xrotation Yrotation Zrotation
			JOINT upperChest
			{
				OFFSET 0.000000 9.220787 -1.370637
				CHANNELS 3 Xrotation Yrotation Zrotation
				JOINT neck
				{
					OFFSET 0.000000 16.740372 -2.049022
					CHANNELS 6 Xposition Yposition Zposition Xrotation Yrotation Zrotation
					JOINT head
					{
						OFFSET 0.000000 9.617859 1.684976
						CHANNELS 6 Xposition Yposition Zposition Xrotation Yrotation Zrotation
						JOINT headEnd
						{
							OFFSET 0.000000 22.037384 7.501072
							CHANNELS 6 Xposition Yposition Zposition Xrotation Yrotation Zrotation
							End Site
							{
								OFFSET 0.000000 23.106567 -2.828246
							}
						}
					}
				}
				JOINT rightShoulder
				{
					OFFSET -4.570000 11.014877 -2.160840
					CHANNELS 6 Xposition Yposition Zposition Xrotation Yrotation Zrotation
					JOINT rightUpperArm
					{
						OFFSET -10.592867 -0.524796 -2.232105
						CHANNELS 3 Xrotation Yrotation Zrotation
						JOINT rightLowerArm
						{
							OFFSET -27.841497 0.000000 -0.000002
							CHANNELS 3 Xrotation Yrotation Zrotation
							JOINT rightHand
							{
								OFFSET -28.328812 0.000000 -0.000001
								CHANNELS 3 Xrotation Yrotation Zrotation
								JOINT rightThumbProximal
								{
									OFFSET -2.464798 -1.573990 2.681911
									CHANNELS 6 Xposition Yposition Zposition Xrotation Yrotation Zrotation
									JOINT rightThumbIntermediate
									{
										OFFSET -3.244781 -1.873383 1.873376
										CHANNELS 3 Xrotation Yrotation Zrotation
										JOINT rightThumbDistal
										{
											OFFSET -2.646263 -1.527817 1.527818
											CHANNELS 6 Xposition Yposition Zposition Xrotation Yrotation Zrotation
											JOINT rightHandThumb4
											{
												OFFSET -1.994591 -1.151581 1.151575
												CHANNELS 6 Xposition Yposition Zposition Xrotation Yrotation Zrotation
												End Site
												{
													OFFSET -1.860176 -1.142715 1.365483
												}
											}
										}
									}
								}
								JOINT rightIndexProximal
								{
									OFFSET -9.108299 -0.517883 2.259803
									CHANNELS 6 Xposition Yposition Zposition Xrotation Yrotation Zrotation
									JOINT rightIndexIntermediate
									{
										OFFSET -3.699997 0.000000 0.000000
										CHANNELS 3 Xrotation Yrotation Zrotation
										JOINT rightIndexDistal
										{
											OFFSET -2.850006 0.000000 0.000000
											CHANNELS 3 Xrotation Yrotation Zrotation
											JOINT rightHandIndex4
											{
												OFFSET -2.772194 0.000000 0.000000
												CHANNELS 3 Xrotation Yrotation Zrotation
												End Site
												{
													OFFSET -2.772202 0.000000 -0.000484
												}
											}
										}
									}
								}
								JOINT rightMiddleProximal
								{
									OFFSET -9.532501 0.000000 -0.000000
									CHANNELS 6 Xposition Yposition Zposition Xrotation Yrotation Zrotation
									JOINT rightMiddleIntermediate
									{
										OFFSET -3.699997 0.000000 0.000000
										CHANNELS 3 Xrotation Yrotation Zrotation
										JOINT rightMiddleDistal
										{
											OFFSET -2.949997 0.000000 0.000000
											CHANNELS 3 Xrotation Yrotation Zrotation
											JOINT rightHandMiddle4
											{
												OFFSET -2.946594 0.000000 0.000000
												CHANNELS 3 Xrotation Yrotation Zrotation
												End Site
												{
													OFFSET -2.946602 0.000000 -0.000982
												}
											}
										}
									}
								}
								JOINT rightRingProximal
								{
									OFFSET -9.103600 -0.043106 -1.865100
									CHANNELS 6 Xposition Yposition Zposition Xrotation Yrotation Zrotation
									JOINT rightRingIntermediate
									{
										OFFSET -3.379303 0.000000 0.000000
										CHANNELS 3 Xrotation Yrotation Zrotation
										JOINT rightRingDistal
										{
											OFFSET -2.889694 0.000000 0.000000
											CHANNELS 3 Xrotation Yrotation Zrotation
											JOINT rightHandRing4
											{
												OFFSET -2.638802 0.000000 0.000000
												CHANNELS 3 Xrotation Yrotation Zrotation
												End Site
												{
													OFFSET -2.638802 0.000000 0.004218
												}
											}
										}
									}
								}
								JOINT rightLittleProximal
								{
									OFFSET -8.076698 -0.486725 -3.806299
									CHANNELS 6 Xposition Yposition Zposition Xrotation Yrotation Zrotation
									JOINT rightLittleIntermediate
									{
										OFFSET -3.600006 0.000000 0.000000
										CHANNELS 3 Xrotation Yrotation Zrotation
										JOINT rightLittleDistal
										{
											OFFSET -2.099998 0.000000 0.000000
											CHANNELS 3 Xrotation Yrotation Zrotation
											JOINT rightHandPinky4
											{
												OFFSET -2.115791 0.000000 0.000000
												CHANNELS 3 Xrotation Yrotation Zrotation
												End Site
												{
													OFFSET -2.115799 0.000000 0.000174
												}
											}
										}
									}
								}
							}
						}
					}
				}
				JOINT leftShoulder
				{
					OFFSET 4.570400 11.014679 -2.160816
					CHANNELS 6 Xposition Yposition Zposition Xrotation Yrotation Zrotation
					JOINT leftUpperArm
					{
						OFFSET 10.592373 -0.524597 -2.232116
						CHANNELS 3 Xrotation Yrotation Zrotation
						JOINT leftLowerArm
						{
							OFFSET 27.841488 0.000000 0.000001
							CHANNELS 3 Xrotation Yrotation Zrotation
							JOINT leftHand
							{
								OFFSET 28.328808 0.000000 -0.000000
								CHANNELS 3 Xrotation Yrotation Zrotation
								JOINT leftThumbProximal
								{
									OFFSET 2.466103 -1.576202 2.681698
									CHANNELS 6 Xposition Yposition Zposition Xrotation Yrotation Zrotation
									JOINT leftThumbIntermediate
									{
										OFFSET 3.243317 -1.872528 1.872530
										CHANNELS 3 Xrotation Yrotation Zrotation
										JOINT leftThumbDistal
										{
											OFFSET 2.647881 -1.528763 1.528754
											CHANNELS 6 Xposition Yposition Zposition Xrotation Yrotation Zrotation
											JOINT leftHandThumb4
											{
												OFFSET 1.998924 -1.154083 1.154080
												CHANNELS 6 Xposition Yposition Zposition Xrotation Yrotation Zrotation
												End Site
												{
													OFFSET 1.884041 -1.149155 1.337651
												}
											}
										}
									}
								}
								JOINT leftIndexProximal
								{
									OFFSET 9.109299 -0.518005 2.259900
									CHANNELS 6 Xposition Yposition Zposition Xrotation Yrotation Zrotation
									JOINT leftIndexIntermediate
									{
										OFFSET 3.699997 0.000000 0.000000
										CHANNELS 3 Xrotation Yrotation Zrotation
										JOINT leftIndexDistal
										{
											OFFSET 2.850006 0.000000 0.000000
											CHANNELS 3 Xrotation Yrotation Zrotation
											JOINT leftHandIndex4
											{
												OFFSET 2.774895 0.000000 0.000000
												CHANNELS 3 Xrotation Yrotation Zrotation
												End Site
												{
													OFFSET 2.774902 0.000000 -0.000072
												}
											}
										}
									}
								}
								JOINT leftMiddleProximal
								{
									OFFSET 9.533401 0.000000 0.000000
									CHANNELS 6 Xposition Yposition Zposition Xrotation Yrotation Zrotation
									JOINT leftMiddleIntermediate
									{
										OFFSET 3.699997 0.000000 0.000000
										CHANNELS 3 Xrotation Yrotation Zrotation
										JOINT leftMiddleDistal
										{
											OFFSET 2.949997 0.000000 0.000000
											CHANNELS 3 Xrotation Yrotation Zrotation
											JOINT leftHandMiddle4
											{
												OFFSET 2.952896 0.000000 0.000000
												CHANNELS 3 Xrotation Yrotation Zrotation
												End Site
												{
													OFFSET 2.952904 0.000000 0.000165
												}
											}
										}
									}
								}
								JOINT leftRingProximal
								{
									OFFSET 9.104500 -0.042999 -1.865101
									CHANNELS 6 Xposition Yposition Zposition Xrotation Yrotation Zrotation
									JOINT leftRingIntermediate
									{
										OFFSET 3.149994 0.000000 0.000000
										CHANNELS 3 Xrotation Yrotation Zrotation
										JOINT leftRingDistal
										{
											OFFSET 2.950005 0.000000 0.000000
											CHANNELS 3 Xrotation Yrotation Zrotation
											JOINT leftHandRing4
											{
												OFFSET 2.644302 0.000000 0.000000
												CHANNELS 3 Xrotation Yrotation Zrotation
												End Site
												{
													OFFSET 2.644302 0.000000 0.000083
												}
											}
										}
									}
								}
								JOINT leftLittleProximal
								{
									OFFSET 8.077805 -0.486893 -3.806302
									CHANNELS 6 Xposition Yposition Zposition Xrotation Yrotation Zrotation
									JOINT leftLittleIntermediate
									{
										OFFSET 3.600006 0.000000 0.000000
										CHANNELS 3 Xrotation Yrotation Zrotation
										JOINT leftLittleDistal
										{
											OFFSET 2.099998 0.000000 0.000000
											CHANNELS 3 Xrotation Yrotation Zrotation
											JOINT leftHandPinky4
											{
												OFFSET 2.125496 0.000000 0.000000
												CHANNELS 3 Xrotation Yrotation Zrotation
												End Site
												{
													OFFSET 2.125504 0.000000 -0.001254
												}
											}
										}
									}
								}
							}
						}
					}
				}
			}
		}
	}
	JOINT rightUpperLeg
	{
		OFFSET -8.207800 -6.751701 -1.599544
		CHANNELS 6 Xposition Yposition Zposition Xrotation Yrotation Zrotation
		JOINT rightLowerLeg
		{
			OFFSET 0.000004 -44.370152 0.345934
			CHANNELS 3 Xrotation Yrotation Zrotation
			JOINT rightFoot
			{
				OFFSET 0.000004 -44.423664 -3.043535
				CHANNELS 3 Xrotation Yrotation Zrotation
				JOINT rightToes
				{
					OFFSET 0.000001 -8.728691 10.710592
					CHANNELS 3 Xrotation Yrotation Zrotation
					JOINT rightToesEnd
					{
						OFFSET 0.000000 -0.000665 9.278101
						CHANNELS 3 Xrotation Yrotation Zrotation
						End Site
						{
							OFFSET 0.000000 -0.000665 9.278103
						}
					}
				}
			}
		}
	}
	JOINT leftUpperLeg
	{
		OFFSET 8.207800 -6.751701 -1.599544
		CHANNELS 6 Xposition Yposition Zposition Xrotation Yrotation Zrotation
		JOINT leftLowerLeg
		{
			OFFSET 0.000004 -44.370037 0.346940
			CHANNELS 3 Xrotation Yrotation Zrotation
			JOINT leftFoot
			{
				OFFSET 0.000004 -44.423611 -3.044388
				CHANNELS 3 Xrotation Yrotation Zrotation
				JOINT leftToes
				{
					OFFSET 0.000001 -8.728690 10.710592
					CHANNELS 3 Xrotation Yrotation Zrotation
					JOINT leftToesEnd
					{
						OFFSET 0.000000 -0.000680 9.278101
						CHANNELS 3 Xrotation Yrotation Zrotation
						End Site
						{
							OFFSET 0.000000 -0.000680 9.278101
						}
					}
				}
			}
		}
	}
}
MOTION
Frames: 4
Frame Time: 0.033333
0.478560 101.630875 1.555262 -0.893322 1.577733 -5.359099 0.000000 10.181546 0.131524 1.298039 -1.197538 3.016783 0.728744 0.264195 5.944685 0.710788 0.781492 5.852000 0.000001 16.740379 -2.049023 1.045307 -0.304693 -2.163987 -0.000002 9.617852 1.684972 1.584929 0.544179 -8.140495 -0.000000 22.037354 7.501075 0.000000 0.000000 -0.000000 -4.569996 11.014891 -2.160842 4.508137 3.324383 5.471595 -1.219703 0.655838 67.345406 -0.000011 17.736791 0.000012 -11.193113 -9.123289 10.139273 -2.464783 -1.573994 2.681910 18.491284 0.461461 -10.916093 1.284029 -32.757611 3.089024 -2.646271 -1.527804 1.527815 2.008711 -8.430473 1.114693 -1.994594 -1.151585 1.151585 -0.000002 0.000000 0.000001 -9.108285 -0.517883 2.259804 0.339561 -4.671351 7.844284 0.387039 -2.823579 20.566256 -0.193133 -0.216342 13.843933 -0.000000 -0.000000 0.000003 -9.532492 0.000016 0.000001 0.912589 -8.769265 15.831752 0.919072 -3.991127 33.400424 0.216473 -1.688829 15.898051 -0.000000 0.000000 -0.000000 -9.103594 -0.043107 -1.865099 2.555821 -11.673028 26.909199 1.710647 -3.886772 40.215471 -0.157961 0.035272 17.815345 -0.000001 -0.000001 -0.000000 -8.076686 -0.486727 -3.806299 5.576073 -16.029166 36.940644 1.378681 -4.077632 45.645611 -0.727747 -0.247562 22.122744 -0.000002 -0.000000 -0.000002 4.570405 11.014692 -2.160816 3.582358 -13.764043 -5.044479 4.032787 3.514252 -83.678348 -0.000009 -14.506751 0.000013 -27.592629 3.698772 -9.416206 2.466089 -1.576217 2.681694 18.491383 -0.461335 10.916045 1.284004 32.757608 -3.088990 2.647883 -1.528749 1.528745 2.117146 9.311161 -0.358624 1.998921 -1.154094 1.154075 -0.000001 -0.000001 0.000001 9.109285 -0.518011 2.259900 0.339553 4.671362 -7.844267 0.387022 2.823617 -20.566224 0.034618 0.816851 -10.169814 -0.000001 -0.000000 -0.000003 9.533388 -0.000001 0.000000 0.912563 8.769288 -15.831726 0.919038 3.991187 -33.400390 0.170557 1.488901 -12.264411 -0.000002 -0.000002 -0.000000 9.104483 -0.043007 -1.865104 2.555786 11.673077 -26.909183 1.710620 3.886854 -40.215474 0.544838 1.835111 -19.344149 0.000001 -0.000000 0.000000 8.077803 -0.486891 -3.806299 5.576041 16.029238 -36.940607 1.378647 4.077727 -45.645604 0.486555 2.853420 -20.524720 0.000001 0.000000 0.000002 -8.207798 -6.751709 -1.599545 -1.603454 -4.966748 10.554071 12.445166 -5.083589 3.268285 -9.845041 1.009955 -7.756594 -0.548649 -0.000000 0.000002 0.000000 -0.000000 -0.000000 8.207798 -6.751710 -1.599545 -19.556152 10.813007 15.936452 22.044869 9.498142 2.339183 -1.490686 3.351049 -8.781905 -0.441967 -0.000000 -0.000003 -0.000000 -0.000000 0.000000 
1.745618 101.439018 1.038000 -0.893063 -0.994321 -5.366061 0.000000 10.181554 0.131523 1.218252 -1.640149 2.964002 0.711250 -0.198483 6.059671 0.728782 0.320845 5.973792 0.000002 16.740393 -2.049021 0.772631 0.496549 -2.044233 -0.000002 9.617819 1.684975 1.382493 2.308391 -8.449361 -0.000000 22.037384 7.501071 -0.000000 -0.000000 -0.000000 -4.569999 11.014885 -2.160842 4.587072 3.177642 5.797671 -1.128808 0.094376 67.048470 -0.000004 17.432180 0.000015 -10.833565 -8.190216 10.704471 -2.464807 -1.573979 2.681910 18.352530 1.029974 -11.110915 1.282137 -33.069505 3.080793 -2.646255 -1.527803 1.527816 2.016112 -8.520128 1.142924 -1.994583 -1.151583 1.151575 -0.000000 -0.000003 0.000003 -9.108299 -0.517883 2.259804 0.351355 -4.767979 8.557068 0.385534 -2.819615 20.524266 -0.193281 -0.211979 13.802096 0.000000 -0.000000 0.000001 -9.532494 -0.000002 0.000001 0.954673 -8.859922 16.326536 0.919484 -3.991794 33.408286 0.216709 -1.689639 15.906522 -0.000001 0.000000 -0.000001 -9.103604 -0.043100 -1.865102 2.594316 -11.681870 27.331775 1.709045 -3.885217 40.193044 -0.158172 0.037635 17.792411 -0.000000 0.000000 0.000000 -8.076697 -0.486715 -3.806300 5.681622 -16.081602 37.350862 1.373620 -4.071760 45.568345 -0.727414 -0.238844 22.045901 -0.000001 -0.000000 -0.000000 4.570402 11.014705 -2.160816 3.601046 -13.940706 -4.833674 4.402103 3.617519 -83.997127 0.000009 -14.339994 -0.000009 -27.495850 3.992316 -9.314950 2.466102 -1.576203 2.681698 18.529327 -0.397152 10.897072 1.292442 32.711729 -3.068305 2.647885 -1.528742 1.528753 2.121725 9.323308 -0.363020 1.998905 -1.154078 1.154068 0.000001 0.000003 0.000001 9.109293 -0.518016 2.259901 0.344063 4.675101 -7.778505 0.386814 2.823118 -20.560968 0.034541 0.816330 -10.164594 0.000002 -0.000001 0.000002 9.533396 -0.000002 -0.000000 0.909463 8.766673 -15.760276 0.919013 3.991151 -33.399847 0.170540 1.488855 -12.263941 0.000002 -0.000000 0.000002 9.104494 -0.042988 -1.865099 2.555811 11.681467 -26.862635 1.711150 3.887395 -40.223244 0.545182 1.835850 -19.352323 -0.000000 0.000000 -0.000000 8.077809 -0.486889 -3.806300 5.582672 16.053801 -36.888513 1.378584 4.077659 -45.644597 0.486523 2.853322 -20.523682 -0.000001 -0.000000 -0.000000 -8.207798 -6.751700 -1.599543 -3.720227 -4.864439 9.224922 15.836531 -4.477908 3.612987 -10.837772 2.519146 -6.951822 -0.489261 -0.000002 -0.000001 0.000000 -0.000000 -0.000000 8.207802 -6.751698 -1.599542 -20.269549 11.197394 15.937493 24.072208 10.046116 1.632592 -2.673185 4.900899 -8.074584 -0.208582 0.000003 -0.000004 0.000000 -0.000000 0.000000 
3.276282 101.259430 0.654032 -0.894824 -3.565854 -5.388791 0.000002 10.181532 0.131524 1.148101 -2.080426 2.931239 0.698027 -0.676709 6.173435 0.750574 -0.155563 6.094832 0.000002 16.740374 -2.049023 0.510678 1.214560 -1.899412 0.000000 9.617874 1.684971 1.143847 3.924596 -8.708232 -0.000000 22.037384 7.501072 -0.000000 0.000000 0.000000 -4.569998 11.014888 -2.160844 4.663179 3.035775 6.101852 -1.047087 -0.555290 66.739308 -0.000006 17.291935 0.000024 -10.528553 -7.137762 11.123204 -2.464800 -1.573967 2.681905 18.188847 1.613215 -11.330332 1.279106 -33.375050 3.069612 -2.646270 -1.527797 1.527813 2.016461 -8.607029 1.128282 -1.994575 -1.151581 1.151577 0.000002 -0.000005 -0.000000 -9.108300 -0.517862 2.259802 0.361795 -4.854604 9.220236 0.384110 -2.815792 20.483862 -0.193437 -0.207766 13.761748 -0.000001 0.000000 0.000001 -9.532507 0.000027 -0.000002 0.992617 -8.936846 16.779454 0.920039 -3.992684 33.418842 0.217014 -1.690709 15.917612 -0.000000 0.000001 -0.000003 -9.103593 -0.043105 -1.865099 2.629277 -11.689011 27.719947 1.707729 -3.883944 40.174674 -0.158343 0.039563 17.773532 0.000001 0.000001 -0.000000 -8.076707 -0.486716 -3.806298 5.775733 -16.120542 37.732994 1.368792 -4.066156 45.494736 -0.727089 -0.230561 21.972725 0.000000 -0.000000 0.000004 4.570399 11.014697 -2.160818 3.619787 -14.134177 -4.619228 4.813094 3.735488 -84.331430 0.000001 -14.143617 0.000012 -27.365575 4.348787 -9.229334 2.466083 -1.576210 2.681695 18.580676 -0.343357 10.865076 1.291810 32.663447 -3.039537 2.647890 -1.528746 1.528748 2.126814 9.336705 -0.367842 1.998929 -1.154109 1.154078 -0.000000 0.000003 -0.000002 9.109280 -0.518014 2.259900 0.349476 4.681485 -7.712577 0.386666 2.822687 -20.556368 0.034474 0.815864 -10.159999 -0.000000 -0.000000 -0.000000 9.533390 -0.000001 -0.000002 0.906370 8.764439 -15.685396 0.918939 3.991033 -33.398488 0.170522 1.488746 -12.262724 0.000000 -0.000000 -0.000000 9.104479 -0.043011 -1.865100 2.556148 11.690873 -26.814797 1.711576 3.887782 -40.228749 0.545424 1.836374 -19.358219 0.000001 0.000000 0.000000 8.077783 -0.486886 -3.806304 5.590299 16.080133 -36.835801 1.378582 4.077640 -45.644546 0.486517 2.853318 -20.523651 0.000000 -0.000000 0.000000 -8.207796 -6.751718 -1.599542 -5.499220 -4.557352 7.758770 18.531060 -3.814482 4.075021 -11.565305 3.801832 -6.114011 -0.665213 0.000007 -0.000003 0.000000 0.000000 0.000000 8.207804 -6.751713 -1.599545 -20.959778 11.915286 15.816182 26.016594 10.088567 1.015856 -4.009389 6.654715 -7.208356 -0.051656 -0.000007 0.000001 -0.000000 -0.000000 0.000000 
5.007968 101.092377 0.499900 -0.898303 -6.136713 -5.420049 -0.000000 10.181547 0.131524 1.105507 -2.525833 2.925624 0.697771 -1.208992 6.279189 0.784576 -0.686671 6.209129 -0.000001 16.740377 -2.049021 0.274102 1.706023 -1.697358 -0.000003 9.617872 1.684977 0.817601 5.160869 -8.859769 -0.000000 22.037384 7.501072 -0.000000 -0.000000 0.000000 -4.570001 11.014884 -2.160842 4.729630 2.934933 6.378323 -1.001694 -1.439002 66.389719 0.000003 17.579862 0.000025 -10.338868 -5.785570 11.179376 -2.464792 -1.574003 2.681908 17.964106 2.211394 -11.597294 1.270338 -33.649528 3.044921 -2.646277 -1.527798 1.527816 1.997547 -8.681529 0.999974 -1.994613 -1.151584 1.151581 -0.000000 -0.000004 0.000003 -9.108294 -0.517873 2.259805 0.365621 -4.912942 9.724348 0.382897 -2.812537 20.449404 -0.193550 -0.204173 13.727355 -0.000000 -0.000001 0.000006 -9.532496 -0.000000 0.000000 1.011787 -8.963935 17.098062 0.921130 -3.994368 33.438830 0.217553 -1.692611 15.937504 -0.000001 0.000001 -0.000001 -9.103600 -0.043104 -1.865101 2.649389 -11.683697 27.998656 1.707395 -3.883610 40.169767 -0.158397 0.040140 17.768025 0.000000 -0.000001 0.000000 -8.076692 -0.486727 -3.806298 5.835668 -16.124799 38.032023 1.365020 -4.061773 45.437127 -0.726826 -0.224068 21.915476 0.000001 0.000000 -0.000001 4.570401 11.014691 -2.160816 3.637010 -14.337489 -4.414016 5.339180 3.908507 -84.669627 -0.000010 -13.861700 -0.000013 -27.168638 4.830343 -9.144542 2.466091 -1.576206 2.681695 18.662356 -0.302630 10.805531 1.274530 32.604680 -2.992460 2.647871 -1.528772 1.528753 2.132867 9.352705 -0.373638 1.998924 -1.154081 1.154074 0.000001 -0.000003 0.000003 9.109291 -0.518020 2.259901 0.357922 4.695320 -7.636817 0.386445 2.822101 -20.550180 0.034382 0.815240 -10.153789 -0.000000 -0.000000 0.000001 9.533391 0.000004 0.000000 0.902814 8.762568 -15.594058 0.918742 3.990732 -33.394912 0.170429 1.488407 -12.259313 -0.000000 -0.000001 0.000000 9.104496 -0.043008 -1.865105 2.556419 11.702208 -26.755635 1.711648 3.887863 -40.230060 0.545498 1.836545 -19.360065 0.000000 0.000000 -0.000000 8.077783 -0.486891 -3.806306 5.599913 16.111412 -36.776839 1.378778 4.077878 -45.647746 0.486656 2.853629 -20.526863 -0.000002 0.000000 -0.000001 -8.207798 -6.751718 -1.599542 -6.969715 -4.009600 6.196361 20.636163 -3.033259 4.637610 -12.094303 4.969507 -5.262843 -0.879085 -0.000005 -0.000003 -0.000000 -0.000001 -0.000000 8.207800 -6.751706 -1.599544 -21.577524 13.038972 15.601757 27.802775 10.074881 0.558666 -5.473196 8.251924 -6.274532 0.000013 0.000000 -0.000004 0.000000 0.000002 0.000000 
